<svg width="75" height="75" version="1.0" xmlns="http://www.w3.org/2000/svg" viewBox="0 0 258 64" preserveAspectRatio="xMidYMid meet">
  <g transform="translate(0.000000,64.000000) scale(0.100000,-0.100000)" fill="#E63E33" stroke="none">
      <path d="M536 524 c-30 -30 -9 -84 33 -84 21 0 51 30 51 52 0 19 -32 48 -53 48 -8 0 -23 -7 -31 -16z"/>
      <path d="M820 475 l0 -65 -43 6 c-83 12 -137 -44 -137 -139 0 -87 36 -137 98 -137 21 0 48 7 61 16 22 16 24 16 33 0 5 -9 22 -16 38 -16 l30 0 0 200 0 200 -40 0 -40 0 0 -65z m-12 -127 c18 -18 15 -108 -5 -130 -39 -44 -90 2 -80 73 3 22 11 46 17 54 15 18 52 19 68 3z"/>
      <path d="M1230 340 l0 -200 34 0 c19 0 36 5 38 11 3 9 9 9 25 0 101 -53 200 82 149 204 -25 60 -78 78 -148 50 -16 -6 -18 0 -18 64 l0 71 -40 0 -40 0 0 -200z m159 7 c33 -41 13 -147 -28 -147 -44 0 -51 10 -51 72 0 46 4 64 18 74 22 17 47 17 61 1z"/>
      <path d="M2200 475 l0 -64 -48 6 c-42 5 -52 2 -80 -22 -88 -74 -52 -255 50 -255 18 0 44 7 57 16 22 16 24 16 33 0 5 -9 22 -16 38 -16 l30 0 0 200 0 200 -40 0 -40 0 0 -65z m-16 -121 c12 -5 16 -21 16 -70 0 -60 -2 -65 -26 -76 -41 -19 -58 -1 -62 64 -4 73 21 101 72 82z"/>
      <path d="M2337 522 c-22 -24 -21 -45 1 -65 23 -21 46 -22 66 -1 30 30 9 84 -33 84 -10 0 -25 -8 -34 -18z"/>
      <path d="M225 496 c-74 -27 -135 -122 -135 -208 0 -82 69 -176 145 -197 73 -20 175 -10 218 22 15 10 16 15 5 29 -12 16 -16 17 -58 2 -58 -20 -141 -14 -177 12 -53 40 -68 71 -68 139 0 71 17 103 75 143 63 43 164 18 197 -48 27 -54 7 -150 -32 -150 -23 0 -24 13 -8 79 18 73 14 81 -50 81 -84 0 -140 -53 -140 -132 0 -55 27 -82 73 -73 44 7 66 7 110 0 61 -11 120 56 120 137 0 49 -37 116 -81 145 -47 31 -136 40 -194 19z m101 -178 c-8 -41 -34 -80 -49 -75 -7 2 -13 18 -15 35 -3 34 25 72 54 72 13 0 15 -7 10 -32z"/>
      <path d="M530 278 l0 -138 40 0 40 0 0 138 0 137 -40 0 -40 0 0 -137z"/>
      <path d="M992 403 c-43 -21 -62 -59 -62 -123 0 -92 47 -140 137 -140 78 0 133 58 133 139 0 110 -107 174 -208 124z m102 -56 c23 -17 31 -85 14 -117 -32 -59 -98 -26 -98 48 0 69 40 101 84 69z"/>
      <path d="M1558 404 c-41 -17 -47 -34 -23 -54 13 -11 23 -11 55 0 44 14 70 3 70 -30 0 -13 -11 -19 -49 -24 -68 -9 -101 -37 -101 -86 0 -29 6 -43 22 -54 28 -20 87 -21 115 -1 18 13 22 13 33 0 7 -8 23 -15 36 -15 24 0 24 1 24 109 0 100 -2 112 -23 137 -29 34 -103 42 -159 18z m102 -174 c0 -24 -34 -43 -60 -35 -41 13 -12 54 38 55 15 0 22 -6 22 -20z"/>
      <path d="M1814 406 c-17 -7 -34 -21 -38 -31 -11 -30 -6 -78 10 -97 14 -14 14 -20 4 -33 -7 -8 -10 -28 -8 -45 3 -18 -1 -35 -9 -41 -19 -17 -16 -63 7 -84 22 -20 93 -30 143 -21 50 9 87 47 87 89 0 47 -25 66 -98 73 -34 4 -62 11 -62 15 0 5 8 9 18 9 9 0 34 5 54 11 39 10 68 48 68 89 0 11 7 20 15 20 9 0 15 9 15 25 0 21 -5 25 -29 25 -15 0 -55 2 -87 5 -40 4 -69 1 -90 -9z m90 -52 c9 -8 16 -19 16 -24 0 -9 -28 -40 -36 -40 -3 0 -14 5 -25 10 -24 13 -25 46 -1 59 23 14 28 14 46 -5z m31 -215 c19 -19 -21 -35 -82 -31 -23 2 -32 30 -15 46 9 10 84 -2 97 -15z"/>
      <path d="M2330 278 l0 -138 40 0 40 0 0 138 0 137 -40 0 -40 0 0 -137z"/>
  </g>
</svg>